<?xml version="1.0"?>
<svg width="189.211" height="211.778" xmlns="http://www.w3.org/2000/svg" xmlns:svg="http://www.w3.org/2000/svg" enable-background="new 0 0 189.211 211.778" version="1.1" xml:space="preserve">
 <g class="layer">
  <title>Layer 1</title>
  <g id="svg_1">
   <path clip-rule="evenodd" d="m73.4,69.84c10.62,0 19.25,8.54 19.4,19.13l0,0l0,0.27l0,19.4l-19.4,0l-0.22,0l0,0c-10.61,-0.12 -19.18,-8.76 -19.18,-19.4c0,-10.71 8.69,-19.4 19.4,-19.4l0,0zm-0.04,7.88c-6.2,0 -11.23,5.15 -11.23,11.52c0,6.32 4.96,11.45 11.1,11.52l0,0l0.13,0l11.23,0l0,-11.52l0,-0.16l0,0c-0.09,-6.29 -5.08,-11.36 -11.23,-11.36z" fill="#FAA21B" fill-rule="evenodd" id="svg_2"/>
   <path clip-rule="evenodd" d="m73.4,150.9c10.62,0 19.25,-8.54 19.4,-19.13l0,0l0,-0.27l0,-19.4l-19.4,0l-0.22,0l0,0c-10.61,0.12 -19.18,8.76 -19.18,19.4c0,10.71 8.69,19.4 19.4,19.4l0,0zm-0.04,-7.88c-6.2,0 -11.23,-5.15 -11.23,-11.52c0,-6.32 4.96,-11.45 11.1,-11.52l0,0l0.13,0l11.23,0l0,11.52l0,0.16l0,0c-0.09,6.29 -5.08,11.36 -11.23,11.36z" fill="#FFFFFF" fill-rule="evenodd" id="svg_3"/>
   <path clip-rule="evenodd" d="m96.29,60.44c3.86,-0.09 7.7,1.52 8.18,8.67l0,16.4l12.07,0c8.35,-0.16 10.88,-8.61 10.52,-15.34l8.12,0c0.4,10.87 -3.16,16.16 -7.91,19.1c4.74,2.94 8.31,8.23 7.91,19.1l-8.12,0c0.39,-7.45 -0.93,-13.17 -10.24,-15.34l-12.34,0.07l0,7.84c-3.37,0.34 -4.43,0.42 -8.18,4.14l0,-44.65z" fill="#FFFFFF" fill-rule="evenodd" id="svg_4"/>
   <path clip-rule="evenodd" d="m104.59,110.99l0,-7.41c-4.21,0 -7.66,3.27 -7.94,7.41l-0.02,0.55l0,7.41c4.21,0 7.66,-3.27 7.94,-7.41l0.02,-0.55z" fill="#FAA21B" fill-rule="evenodd" id="svg_5"/>
   <path clip-rule="evenodd" d="m126.98,112.36l7.97,0l-0.01,15.83c-0.28,4.14 -3.73,7.41 -7.94,7.41l0,-7.41l-0.02,-15.83z" fill="#FFFFFF" fill-rule="evenodd" id="svg_6"/>
   <path clip-rule="evenodd" d="m96.71,121.69c3.78,-0.08 6.6,-1.92 7.97,-4l-0.01,26.23c-0.28,4.14 -3.73,7.41 -7.94,7.41l0,-7.41l-0.02,-22.23z" fill="#FFFFFF" fill-rule="evenodd" id="svg_7"/>
  </g>
 </g>
</svg>